<!DOCTYPE svg PUBLIC "-//W3C//DTD SVG 1.1//EN" "http://www.w3.org/Graphics/SVG/1.1/DTD/svg11.dtd">

<!-- Uploaded to: SVG Repo, www.svgrepo.com, Transformed by: SVG Repo Mixer Tools -->
<svg fill="#000000" width="256px" height="256px" viewBox="2 2 20 20" id="home-alt-1" data-name="Flat Color" xmlns="http://www.w3.org/2000/svg" class="icon flat-color" preserveAspectRatio="none">

<g id="SVGRepo_bgCarrier" stroke-width="0"/>

<g id="SVGRepo_tracerCarrier" stroke-linecap="round" stroke-linejoin="round"/>

<g id="SVGRepo_iconCarrier">

<path id="primary" d="M21.71,11.29l-9-9a1,1,0,0,0-1.42,0l-9,9a1,1,0,0,0,1.42,1.42l.29-.3V20.3A1.77,1.77,0,0,0,5.83,22H8.5a1,1,0,0,0,1-1V16.1a1,1,0,0,1,1-1h3a1,1,0,0,1,1,1V21a1,1,0,0,0,1,1h2.67A1.77,1.77,0,0,0,20,20.3V12.41l.29.3a1,1,0,0,0,1.42,0A1,1,0,0,0,21.71,11.29Z" style="fill: #000000;"/>

</g>

</svg>